<?xml version="1.0" standalone="no"?>
<!DOCTYPE svg PUBLIC "-//W3C//DTD SVG 20010904//EN"
 "http://www.w3.org/TR/2001/REC-SVG-20010904/DTD/svg10.dtd">
<svg version="1.0" xmlns="http://www.w3.org/2000/svg"
 width="225.000000pt" height="225.000000pt" viewBox="0 0 225.000000 225.000000"
 preserveAspectRatio="xMidYMid meet">

<g transform="translate(0.000000,225.000000) scale(0.100000,-0.100000)"
fill="#000000" stroke="none">
<path d="M924 1876 c3 -10 47 -87 96 -171 50 -84 90 -159 90 -165 0 -7 -12
-32 -27 -56 -26 -40 -42 -52 -83 -61 -24 -6 -133 -5 -157 1 -13 4 -32 8 -44
11 -11 2 -38 12 -59 21 -35 15 -38 20 -28 38 33 65 -23 -22 -110 -172 l-101
-173 97 -172 97 -172 435 -2 435 -3 67 123 c37 67 81 145 97 172 l29 50 -202
-5 c-197 -4 -199 -5 -77 -10 l124 -5 -44 -36 c-57 -47 -145 -102 -189 -119
-19 -7 -39 -17 -45 -21 -24 -18 -153 -55 -226 -65 -32 -5 -40 -2 -45 13 -3 10
-9 25 -14 33 -5 8 -17 31 -27 50 -9 19 -24 43 -33 52 -8 9 -26 39 -40 65 -13
26 -27 50 -31 53 -3 3 43 88 103 190 59 102 108 191 108 198 0 12 -184 338
-198 352 -3 3 -2 -3 2 -14z"/>
<path d="M776 1623 c-6 -14 -5 -15 5 -6 7 7 10 15 7 18 -3 3 -9 -2 -12 -12z"/>
<path d="M740 1560 c-6 -11 -8 -20 -6 -20 3 0 10 9 16 20 6 11 8 20 6 20 -3 0
-10 -9 -16 -20z"/>
<path d="M1003 1133 c37 -2 96 -2 130 0 34 2 4 3 -68 3 -71 0 -99 -1 -62 -3z"/>
<path d="M370 573 c-21 -11 -42 -33 -54 -56 -16 -33 -17 -45 -7 -77 37 -124
221 -110 221 15 0 23 -4 25 -49 25 -34 0 -51 -4 -55 -15 -4 -12 3 -15 34 -15
46 0 53 -17 18 -50 -70 -65 -179 29 -131 112 24 42 63 56 105 40 35 -13 57 -2
34 17 -25 21 -79 23 -116 4z"/>
<path d="M1060 470 c0 -91 3 -110 15 -110 12 0 15 19 15 110 0 91 -3 110 -15
110 -12 0 -15 -19 -15 -110z"/>
<path d="M1330 460 l0 -100 53 0 c63 0 91 17 107 65 26 77 -23 135 -115 135
l-45 0 0 -100z m118 60 c16 -15 22 -33 22 -60 0 -53 -27 -80 -80 -80 l-40 0 0
80 0 80 38 0 c25 0 46 -7 60 -20z"/>
<path d="M1630 545 c0 -8 7 -15 15 -15 8 0 15 7 15 15 0 8 -7 15 -15 15 -8 0
-15 -7 -15 -15z"/>
<path d="M572 477 c-12 -13 -22 -36 -22 -51 0 -34 41 -76 75 -76 33 0 75 41
75 73 0 67 -83 102 -128 54z m80 -14 c34 -31 17 -83 -27 -83 -43 0 -60 47 -28
82 20 22 31 23 55 1z"/>
<path d="M742 477 c-12 -13 -22 -36 -22 -51 0 -34 41 -76 75 -76 33 0 75 41
75 73 0 67 -83 102 -128 54z m80 -14 c34 -31 17 -83 -27 -83 -43 0 -60 47 -28
82 20 22 31 23 55 1z"/>
<path d="M911 474 c-28 -35 -26 -69 4 -99 26 -27 46 -31 76 -15 22 12 25 0 9
-31 -12 -22 -41 -25 -70 -7 -29 19 -38 -1 -10 -24 17 -14 33 -18 55 -14 46 9
55 30 55 126 l0 86 -49 2 c-43 2 -52 -2 -70 -24z m84 -14 c38 -42 -18 -105
-61 -70 -19 16 -18 49 3 72 21 23 36 23 58 -2z"/>
<path d="M1130 473 c-54 -69 28 -156 99 -107 18 13 20 18 10 25 -7 4 -19 3
-26 -2 -15 -13 -55 -8 -60 7 -2 6 17 19 42 28 56 22 61 30 35 56 -29 29 -74
26 -100 -7z m77 -9 c4 -12 -56 -38 -65 -29 -3 3 3 14 13 25 20 22 46 23 52 4z"/>
<path d="M1537 493 c-11 -10 -8 -133 3 -133 6 0 10 20 10 44 0 46 18 76 46 76
8 0 14 5 14 10 0 12 -20 13 -40 0 -9 -5 -17 -5 -20 1 -4 5 -9 6 -13 2z"/>
<path d="M1775 453 c-26 -69 -31 -71 -52 -14 -10 28 -23 51 -30 51 -12 0 -10
-8 34 -118 11 -27 36 -5 59 52 13 33 20 64 16 68 -5 5 -17 -12 -27 -39z"/>
<path d="M1841 474 c-28 -35 -26 -69 4 -99 30 -30 55 -32 86 -4 21 18 21 20 4
13 -39 -14 -67 -9 -82 14 l-15 22 61 0 c68 0 75 9 40 54 -28 35 -70 35 -98 0z
m77 -6 c21 -21 13 -28 -28 -28 -22 0 -40 4 -40 8 0 14 23 32 40 32 9 0 21 -5
28 -12z"/>
<path d="M1630 425 c0 -51 3 -65 15 -65 12 0 15 14 15 65 0 51 -3 65 -15 65
-12 0 -15 -14 -15 -65z"/>
</g>
</svg>
