<?xml version="1.0" standalone="no"?>
<!DOCTYPE svg PUBLIC "-//W3C//DTD SVG 20010904//EN"
 "http://www.w3.org/TR/2001/REC-SVG-20010904/DTD/svg10.dtd">
<svg version="1.0" xmlns="http://www.w3.org/2000/svg"
 width="286.000000pt" height="176.000000pt" viewBox="0 0 286.000000 176.000000"
 preserveAspectRatio="xMidYMid meet">

<g transform="translate(0.000000,176.000000) scale(0.100000,-0.100000)"
fill="#000000" stroke="none">
<path d="M135 1745 c-51 -18 -110 -81 -124 -131 -15 -55 -15 -1414 0 -1469 15
-52 82 -119 134 -134 57 -15 2513 -15 2570 0 52 15 119 82 134 134 15 56 15
1414 0 1470 -15 52 -82 119 -134 134 -28 8 -404 11 -1290 11 -1051 -1 -1256
-3 -1290 -15z m2567 -142 c17 -15 18 -51 18 -721 0 -642 -1 -707 -17 -724 -15
-17 -68 -18 -1271 -18 -1154 0 -1257 1 -1274 17 -17 15 -18 51 -18 721 0 642
1 707 17 724 15 17 68 18 1271 18 1154 0 1257 -1 1274 -17z"/>
<path d="M410 880 l0 -470 140 0 140 0 2 266 3 265 134 -166 c109 -138 135
-165 146 -154 6 8 68 84 136 169 l124 155 3 -267 2 -268 135 0 135 0 0 470 0
470 -135 0 -135 0 -136 -170 c-75 -93 -139 -170 -143 -170 -3 0 -67 77 -141
170 l-135 170 -137 0 -138 0 0 -470z"/>
<path d="M1997 1343 c-4 -3 -7 -114 -7 -245 l0 -239 -130 3 c-72 2 -130 1
-130 -2 0 -7 389 -435 399 -438 6 -2 340 357 392 422 17 21 17 21 -117 18
l-134 -3 0 245 0 246 -133 0 c-74 0 -137 -3 -140 -7z"/>
</g>
</svg>
