<?xml version="1.0" standalone="no"?>
<!DOCTYPE svg PUBLIC "-//W3C//DTD SVG 20010904//EN"
 "http://www.w3.org/TR/2001/REC-SVG-20010904/DTD/svg10.dtd">
<svg version="1.0" xmlns="http://www.w3.org/2000/svg"
 width="404.000000pt" height="125.000000pt" viewBox="0 0 404.000000 125.000000"
 preserveAspectRatio="xMidYMid meet">

<g transform="translate(0.000000,125.000000) scale(0.100000,-0.100000)"
fill="#000000" stroke="none">
<path d="M530 585 c0 -31 3 -35 25 -35 22 0 25 4 25 35 0 31 -3 35 -25 35 -22
0 -25 -4 -25 -35z"/>
<path d="M1080 585 c0 -32 2 -35 30 -35 28 0 30 3 30 35 0 32 -2 35 -30 35
-28 0 -30 -3 -30 -35z"/>
<path d="M3040 585 c0 -31 3 -35 25 -35 22 0 25 4 25 35 0 31 -3 35 -25 35
-22 0 -25 -4 -25 -35z"/>
<path d="M0 381 l0 -221 30 0 30 0 2 190 3 191 55 -148 c53 -143 56 -148 85
-151 30 -3 30 -3 85 145 l55 148 3 -187 2 -188 30 0 30 0 0 220 0 220 -44 0
-44 0 -26 -67 c-91 -243 -89 -238 -98 -218 -4 11 -30 78 -56 150 l-49 130 -47
3 -46 3 0 -220z"/>
<path d="M2467 380 l55 -220 38 0 38 0 42 173 c24 94 46 178 50 185 4 8 27
-69 51 -170 l44 -183 40 0 39 0 53 210 c29 116 53 213 53 218 0 4 -13 7 -28 7
-28 0 -28 0 -72 -180 -24 -99 -47 -180 -50 -180 -3 0 -26 81 -50 180 l-44 180
-33 0 c-37 0 -28 23 -88 -220 -20 -80 -38 -146 -39 -148 -2 -1 -20 64 -40 145
-61 243 -53 223 -85 223 l-29 0 55 -220z"/>
<path d="M3210 380 l0 -220 30 0 30 0 0 105 0 105 89 0 88 0 -5 25 c-4 24 -7
25 -88 25 l-84 0 0 65 0 65 95 0 c95 0 95 0 95 25 l0 25 -125 0 -125 0 0 -220z"/>
<path d="M2010 536 c0 -35 -4 -45 -20 -49 -11 -3 -20 -12 -20 -21 0 -9 8 -16
20 -16 19 0 20 -7 20 -92 1 -109 12 -167 36 -185 10 -7 44 -13 76 -13 51 0 58
2 58 20 0 17 -7 20 -43 20 -24 0 -48 5 -55 12 -8 8 -12 50 -12 125 l0 113 55
0 c48 0 55 2 55 20 0 18 -7 20 -55 20 l-55 0 0 45 c0 43 -1 45 -30 45 -29 0
-30 -2 -30 -44z"/>
<path d="M828 493 c-14 -2 -38 -15 -52 -28 l-26 -24 0 24 c0 20 -5 25 -25 25
l-24 0 -3 -165 -3 -165 28 0 27 0 0 116 c0 114 0 116 29 145 38 37 82 39 116
4 24 -23 25 -30 25 -145 l0 -120 25 0 25 0 0 125 c0 161 -14 193 -90 207 -14
2 -37 3 -52 1z"/>
<path d="M1376 489 c-16 -4 -39 -18 -52 -30 l-24 -22 0 26 c0 22 -5 27 -25 27
l-25 0 0 -165 0 -165 25 0 c25 0 25 1 25 89 0 49 3 102 6 119 18 90 133 112
161 32 7 -19 12 -81 12 -137 l1 -103 25 0 25 0 0 115 c0 121 -11 166 -46 196
-24 21 -71 29 -108 18z"/>
<path d="M1735 488 c-80 -18 -120 -86 -113 -189 7 -100 63 -149 169 -149 77 0
119 16 119 44 0 23 0 23 -59 7 -96 -25 -157 3 -176 82 l-7 27 126 0 126 0 0
43 c0 99 -81 158 -185 135z m106 -67 c16 -16 29 -39 29 -50 0 -20 -5 -21 -101
-21 -99 0 -100 0 -94 23 4 12 20 34 36 50 41 38 90 37 130 -2z"/>
<path d="M530 325 l0 -165 25 0 25 0 0 165 0 165 -25 0 -25 0 0 -165z"/>
<path d="M1080 325 l0 -165 30 0 30 0 0 165 0 165 -30 0 -30 0 0 -165z"/>
<path d="M3040 325 l0 -165 25 0 25 0 0 165 0 165 -25 0 -25 0 0 -165z"/>
<path d="M3520 325 l0 -165 25 0 25 0 0 165 0 165 -25 0 -25 0 0 -165z"/>
<path d="M2230 323 c0 -22 4 -23 78 -23 74 0 79 1 77 21 -1 19 -8 21 -78 22
-74 2 -77 1 -77 -20z"/>
<path d="M2583 50 c0 -30 2 -43 4 -28 2 16 2 40 0 55 -2 16 -4 3 -4 -27z"/>
<path d="M0 45 l0 -45 38 2 c35 1 35 1 6 5 -29 4 -32 7 -31 38 1 30 4 34 31
38 28 3 27 4 -6 5 l-38 2 0 -45z"/>
<path d="M333 45 c0 -27 2 -38 4 -22 2 15 2 37 0 50 -2 12 -4 0 -4 -28z"/>
<path d="M447 77 c-8 -24 13 -77 31 -76 10 0 12 3 5 6 -15 6 -17 50 -3 55 6 2
2 8 -9 15 -15 9 -20 9 -24 0z"/>
<path d="M708 77 c-2 -7 -1 -28 3 -47 l6 -35 2 32 c0 17 5 33 10 35 5 2 3 8
-4 15 -10 9 -14 9 -17 0z"/>
<path d="M957 83 c-15 -14 -5 -32 24 -42 35 -12 30 -31 -9 -32 -15 0 -21 -3
-14 -6 7 -3 24 -2 38 1 32 8 29 38 -5 46 -35 8 -37 28 -4 33 27 4 28 4 2 6
-14 0 -29 -2 -32 -6z"/>
<path d="M1133 78 c-5 -7 -6 -29 -2 -48 l6 -35 2 33 c1 25 5 32 20 32 14 0 21
-8 23 -27 2 -18 9 -28 21 -29 12 -1 13 -1 2 3 -22 7 -20 53 3 54 13 0 14 2 2
6 -8 3 -18 11 -22 17 -5 8 -8 7 -8 -1 0 -7 -9 -13 -21 -13 -11 0 -17 5 -14 10
9 14 -1 12 -12 -2z"/>
<path d="M1640 45 c0 -43 1 -45 29 -45 33 0 61 22 61 49 0 26 -21 41 -57 41
-32 0 -33 -1 -33 -45z m71 19 c17 -21 0 -49 -32 -49 -20 0 -25 6 -27 33 -3 28
0 32 21 32 14 0 30 -7 38 -16z"/>
<path d="M1845 80 c-11 -17 -7 -61 6 -75 5 -5 9 3 9 23 0 44 27 43 33 0 4 -32
4 -32 5 5 2 30 -1 37 -17 37 -11 0 -21 5 -23 12 -3 9 -7 8 -13 -2z"/>
<path d="M2170 77 c0 -7 -12 -13 -27 -12 -23 0 -29 -5 -31 -27 -4 -29 -3 -30
41 -33 26 -2 27 0 27 41 0 24 -2 44 -5 44 -3 0 -5 -6 -5 -13z m-2 -40 c4 -20
-25 -34 -40 -19 -15 15 -1 44 19 40 10 -2 19 -11 21 -21z"/>
<path d="M2251 85 c-2 -19 20 -85 28 -85 10 0 24 50 16 58 -3 3 -5 -2 -5 -11
0 -28 -17 -19 -28 16 -5 17 -10 28 -11 22z"/>
<path d="M2300 80 c0 -5 4 -10 9 -10 5 0 12 -16 15 -35 4 -19 11 -35 16 -35
11 0 33 66 27 83 -2 6 -7 -3 -11 -20 -9 -41 -22 -42 -29 -3 -6 27 -27 43 -27
20z"/>
<path d="M2910 43 c0 -25 2 -44 4 -42 8 10 13 89 5 89 -5 0 -9 -21 -9 -47z"/>
<path d="M2971 55 l-2 -40 -15 28 c-9 16 -18 26 -21 23 -3 -2 5 -20 18 -38
l24 -33 3 28 c2 15 1 37 -1 50 -2 13 -5 6 -6 -18z"/>
<path d="M3098 78 c-9 -27 7 -73 27 -76 18 -2 19 -2 3 8 -10 6 -18 20 -18 30
0 12 7 20 18 21 13 0 14 2 2 6 -8 3 -18 10 -21 15 -3 5 -8 4 -11 -4z"/>
<path d="M3430 45 c0 -27 3 -45 7 -42 7 8 6 77 -2 85 -3 3 -5 -16 -5 -43z"/>
<path d="M91 30 c1 -35 1 -35 8 -5 3 17 14 31 24 33 13 3 17 -4 18 -30 l1 -33
7 30 c8 39 41 48 41 11 0 -14 5 -26 10 -26 12 0 13 30 2 46 -4 7 -30 11 -59
11 l-53 -1 1 -36z"/>
<path d="M233 40 c2 -26 7 -36 22 -38 18 -4 19 -3 3 10 -9 7 -19 24 -21 38 -3
16 -5 13 -4 -10z"/>
<path d="M287 43 c-3 -16 -1 -32 4 -38 5 -5 9 5 9 28 0 44 -6 48 -13 10z"/>
<path d="M388 63 c15 -3 22 -11 22 -29 0 -13 5 -24 10 -24 14 0 13 33 -2 48
-7 7 -21 11 -32 11 -19 -2 -19 -2 2 -6z"/>
<path d="M514 56 c-10 -26 1 -51 23 -54 28 -4 50 32 32 54 -15 18 -48 18 -55
0z m46 -21 c0 -18 -5 -25 -20 -25 -15 0 -20 7 -20 25 0 18 5 25 20 25 15 0 20
-7 20 -25z"/>
<path d="M601 30 c1 -27 3 -29 6 -10 2 14 11 30 20 37 13 10 13 12 -6 10 -17
-1 -21 -7 -20 -37z"/>
<path d="M762 58 c-26 -26 1 -65 38 -53 16 5 20 14 18 33 -3 30 -35 41 -56 20z
m46 -21 c4 -20 -25 -34 -40 -19 -15 15 -1 44 19 40 10 -2 19 -11 21 -21z"/>
<path d="M840 40 c0 -17 5 -30 10 -30 6 0 10 11 10 24 0 15 7 26 18 29 10 3 6
5 -10 6 -25 1 -28 -3 -28 -29z"/>
<path d="M1044 56 c-11 -28 1 -51 25 -51 32 0 49 28 32 49 -17 20 -50 21 -57
2z m49 -8 c6 -19 -3 -38 -18 -38 -18 0 -28 17 -21 35 7 18 33 20 39 3z"/>
<path d="M1236 50 c13 -51 22 -57 34 -25 l12 30 13 -30 13 -30 11 28 c15 39
12 59 -3 23 l-13 -29 -7 27 c-8 34 -22 33 -31 -1 l-7 -28 -14 30 c-11 25 -13
25 -8 5z"/>
<path d="M1378 63 c15 -3 22 -11 22 -29 0 -13 5 -24 10 -24 13 0 13 16 0 41
-6 11 -20 18 -33 18 l-22 -2 23 -4z"/>
<path d="M1441 30 l1 -35 9 32 c5 17 17 34 27 36 9 3 5 4 -10 4 -25 -1 -28 -5
-27 -37z"/>
<path d="M1504 56 c-12 -30 1 -51 31 -53 18 -1 22 1 10 4 -33 8 -42 23 -14 23
32 0 42 9 28 27 -15 17 -48 17 -55 -1z m46 -6 c0 -5 -9 -10 -20 -10 -11 0 -20
5 -20 10 0 6 9 10 20 10 11 0 20 -4 20 -10z"/>
<path d="M1757 64 c-4 -4 -7 -18 -7 -30 0 -17 7 -25 25 -30 14 -4 29 -4 32 0
4 3 -3 6 -15 6 -11 0 -24 4 -27 10 -4 6 7 10 25 10 25 0 31 4 28 18 -3 17 -48
29 -61 16z m48 -14 c4 -6 -5 -10 -20 -10 -15 0 -24 4 -20 10 3 6 12 10 20 10
8 0 17 -4 20 -10z"/>
<path d="M1931 31 l1 -36 9 33 c12 42 41 40 51 -3 6 -29 6 -29 5 5 -2 32 -5
35 -34 36 -31 1 -33 -1 -32 -35z"/>
<path d="M2030 55 c-19 -23 -1 -50 36 -52 25 -1 26 0 4 4 -40 8 -48 23 -11 23
26 0 32 4 29 18 -4 23 -41 27 -58 7z m45 -5 c4 -6 -5 -10 -20 -10 -15 0 -24 4
-20 10 3 6 12 10 20 10 8 0 17 -4 20 -10z"/>
<path d="M2393 35 c0 -22 2 -30 4 -17 2 12 2 30 0 40 -3 9 -5 -1 -4 -23z"/>
<path d="M2431 30 c1 -34 2 -34 8 -6 3 16 15 33 26 37 17 6 15 7 -7 6 -25 -1
-28 -5 -27 -37z"/>
<path d="M2491 51 c-15 -26 8 -54 40 -48 23 4 23 4 -3 6 -34 1 -38 21 -5 21
30 0 40 10 26 27 -16 19 -47 16 -58 -6z m49 -1 c0 -5 -9 -10 -20 -10 -11 0
-20 5 -20 10 0 6 9 10 20 10 11 0 20 -4 20 -10z"/>
<path d="M2621 52 c-15 -28 8 -55 40 -49 23 4 23 4 -3 6 -35 1 -37 21 -2 21
19 0 25 5 22 18 -5 24 -44 28 -57 4z m49 -2 c0 -5 -9 -10 -20 -10 -11 0 -20 5
-20 10 0 6 9 10 20 10 11 0 20 -4 20 -10z"/>
<path d="M2704 59 c-7 -12 12 -29 34 -29 20 0 14 -18 -8 -23 -18 -4 -18 -5 2
-3 29 1 36 26 9 33 -28 7 -27 20 2 26 19 4 19 4 -5 6 -15 0 -30 -4 -34 -10z"/>
<path d="M2785 60 c-8 -14 3 -30 21 -30 23 0 16 -18 -8 -23 -16 -4 -13 -5 7
-4 36 2 42 30 8 35 -13 2 -23 7 -23 12 0 5 10 11 23 13 22 4 22 4 0 6 -12 0
-25 -3 -28 -9z"/>
<path d="M3023 64 c-7 -3 -13 -16 -13 -30 0 -17 7 -25 25 -30 14 -4 29 -4 32
0 4 3 -3 6 -15 6 -11 0 -24 5 -27 10 -4 6 7 10 25 10 25 0 31 4 28 18 -3 17
-32 25 -55 16z m42 -14 c4 -6 -5 -10 -20 -10 -15 0 -24 4 -20 10 3 6 12 10 20
10 8 0 17 -4 20 -10z"/>
<path d="M3163 35 c12 -42 22 -44 32 -8 5 21 8 24 16 12 7 -12 9 -11 9 3 0 26
-21 33 -27 9 -6 -24 -23 -29 -23 -7 0 8 -4 17 -9 20 -5 4 -4 -10 2 -29z"/>
<path d="M3240 51 c0 -11 -4 -23 -10 -26 -12 -7 -13 -25 -2 -25 5 0 13 16 19
35 6 20 7 35 2 35 -5 0 -9 -9 -9 -19z"/>
<path d="M3280 55 c-18 -22 -1 -50 31 -50 20 0 24 5 24 30 0 23 -5 31 -21 33
-11 2 -27 -4 -34 -13z m48 -18 c4 -21 -27 -35 -38 -17 -12 19 0 42 19 38 9 -2
17 -11 19 -21z"/>
<path d="M3373 35 c0 -22 2 -30 4 -17 2 12 2 30 0 40 -3 9 -5 -1 -4 -23z"/>
<path d="M3459 53 c-13 -17 -13 -17 6 -3 11 8 22 16 24 17 2 2 0 3 -6 3 -6 0
-17 -8 -24 -17z"/>
<path d="M3510 54 c0 -9 9 -18 20 -21 26 -7 26 -20 0 -26 -18 -4 -18 -5 2 -3
29 1 36 26 9 33 -28 7 -27 20 2 26 19 4 18 4 -5 6 -20 1 -28 -4 -28 -15z"/>
<path d="M365 30 c-9 -15 4 -30 23 -29 15 1 14 2 -1 6 -11 3 -16 11 -13 19 6
16 0 19 -9 4z"/>
<path d="M1355 30 c-9 -15 4 -30 23 -29 15 1 14 2 -1 6 -11 3 -16 11 -13 19 6
16 0 19 -9 4z"/>
<path d="M1588 33 c6 -2 18 -2 25 0 6 3 1 5 -13 5 -14 0 -19 -2 -12 -5z"/>
<path d="M3450 25 c0 -2 10 -10 23 -16 20 -11 21 -11 8 4 -13 16 -31 23 -31
12z"/>
</g>
</svg>
