<?xml version="1.0" standalone="no"?>
<!DOCTYPE svg PUBLIC "-//W3C//DTD SVG 20010904//EN"
 "http://www.w3.org/TR/2001/REC-SVG-20010904/DTD/svg10.dtd">
<svg version="1.0" xmlns="http://www.w3.org/2000/svg"
 width="300.000000pt" height="168.000000pt" viewBox="0 0 300.000000 168.000000"
 preserveAspectRatio="xMidYMid meet">

<g transform="translate(0.000000,168.000000) scale(0.100000,-0.100000)"
fill="#000000" stroke="none">
<path d="M190 1200 c-85 -50 -161 -98 -168 -107 -9 -13 -12 -75 -10 -252 3
-273 3 -271 87 -231 81 37 79 33 83 228 4 207 -8 190 167 252 l121 42 0 50 c0
41 -5 54 -29 79 -48 47 -75 40 -251 -61z"/>
<path d="M710 1130 c0 -5 -50 -11 -117 -12 l-118 -3 -3 -261 -2 -261 -152 -6
c-164 -7 -186 -14 -174 -59 4 -16 35 -39 109 -80 57 -32 110 -58 118 -58 8 0
81 20 164 44 106 32 154 51 167 66 16 20 18 50 18 331 0 170 -2 309 -5 309 -3
0 -5 -4 -5 -10z"/>
<path d="M1698 1114 c-37 -19 -58 -63 -58 -119 0 -43 -1 -45 -30 -45 -28 0
-30 -3 -30 -35 0 -32 2 -35 30 -35 l30 0 0 -150 0 -150 40 0 40 0 0 150 0 150
45 0 c45 0 45 0 45 35 0 35 0 35 -45 35 l-45 0 0 40 c0 52 29 84 71 78 27 -4
29 -2 29 29 0 33 0 33 -47 33 -27 -1 -60 -7 -75 -16z"/>
<path d="M1958 1114 c-37 -19 -58 -63 -58 -118 0 -43 -1 -45 -32 -48 -29 -3
-33 -6 -33 -33 0 -27 4 -30 33 -33 l32 -3 0 -150 0 -149 40 0 40 0 0 150 0
150 45 0 c45 0 45 0 45 35 0 35 0 35 -45 35 l-45 0 0 40 c0 52 29 84 71 78 27
-4 29 -2 29 29 0 33 0 33 -47 33 -27 -1 -60 -7 -75 -16z"/>
<path d="M2136 1104 c-30 -29 -10 -74 32 -74 33 0 52 16 52 45 0 43 -53 61
-84 29z"/>
<path d="M1165 1081 c-89 -41 -138 -130 -138 -251 0 -93 23 -150 81 -202 85
-77 237 -79 328 -5 58 48 84 115 84 217 0 126 -41 198 -135 241 -54 25 -166
25 -220 0z m185 -69 c54 -27 84 -91 84 -177 0 -55 -5 -79 -24 -112 -26 -46
-85 -83 -133 -83 -75 0 -138 58 -158 144 -36 163 97 296 231 228z"/>
<path d="M2465 950 c-115 -16 -187 -132 -156 -248 23 -84 88 -132 180 -132 77
0 101 13 101 54 l0 34 -40 -15 c-84 -33 -160 21 -160 115 0 103 87 159 183
118 14 -7 17 -3 17 28 0 31 -4 36 -27 41 -49 11 -57 11 -98 5z"/>
<path d="M2800 950 c-49 -9 -75 -25 -107 -67 -24 -31 -29 -48 -31 -113 -5 -97
18 -149 78 -180 45 -23 121 -26 181 -8 35 10 39 15 39 44 l0 33 -35 -15 c-70
-29 -150 -9 -174 43 -24 52 -21 53 114 53 l125 0 0 45 c0 115 -79 184 -190
165z m61 -60 c18 0 49 -41 49 -65 0 -25 -1 -25 -85 -25 -94 0 -101 6 -64 54
24 30 57 47 77 40 8 -2 18 -4 23 -4z"/>
<path d="M2130 765 l0 -185 40 0 40 0 0 185 0 185 -40 0 -40 0 0 -185z"/>
</g>
</svg>
