<?xml version="1.0" standalone="no"?>
<!DOCTYPE svg PUBLIC "-//W3C//DTD SVG 20010904//EN"
 "http://www.w3.org/TR/2001/REC-SVG-20010904/DTD/svg10.dtd">
<svg version="1.0" xmlns="http://www.w3.org/2000/svg"
 width="296.000000pt" height="171.000000pt" viewBox="0 0 296.000000 171.000000"
 preserveAspectRatio="xMidYMid meet">

<g transform="translate(0.000000,171.000000) scale(0.100000,-0.100000)"
fill="#000000" stroke="none">
<path d="M1180 1645 c-256 -35 -475 -64 -487 -64 l-23 -1 0 -710 c0 -561 3
-710 13 -710 6 0 226 -29 487 -65 261 -36 478 -65 483 -65 4 0 7 32 7 70 l0
70 265 0 c294 0 321 5 349 59 14 26 16 106 16 641 0 670 1 653 -60 685 -24 12
-77 15 -300 15 l-270 0 0 70 c0 39 -3 70 -7 69 -5 0 -217 -29 -473 -64z m1032
-152 c17 -15 18 -48 18 -623 0 -577 -1 -608 -18 -624 -17 -15 -48 -16 -283
-14 l-264 3 -3 625 c-1 344 0 631 3 638 3 9 66 12 266 12 230 0 265 -2 281
-17z m-782 -528 l0 -145 75 0 75 0 0 -35 0 -35 -47 0 c-27 0 -78 3 -115 7
l-68 6 0 168 c0 182 -2 175 58 178 22 1 22 0 22 -144z m-493 122 c2 -2 0 -17
-3 -34 -6 -28 -8 -30 -38 -23 -41 9 -79 -4 -74 -27 2 -10 24 -28 50 -40 84
-40 104 -109 48 -165 -29 -29 -34 -30 -95 -26 -35 2 -67 7 -71 10 -3 4 -3 20
1 37 6 27 9 30 26 20 11 -5 37 -9 57 -7 29 2 38 8 40 25 3 18 -7 27 -47 48
-63 32 -85 63 -77 109 11 58 63 89 135 81 25 -3 46 -7 48 -8z m291 -7 c83 -51
95 -212 21 -274 l-27 -23 39 -12 c43 -13 44 -16 26 -48 l-12 -21 -75 28 c-41
15 -87 31 -101 34 -66 15 -110 79 -111 161 -1 66 26 121 72 153 43 29 121 30
168 2z"/>
<path d="M1797 1076 c-87 -24 -87 -23 -87 -231 0 -178 0 -182 24 -204 70 -66
290 -68 367 -4 l30 25 -1 184 c-2 183 -2 184 -26 203 -50 39 -209 53 -307 27z
m-2 -137 c49 -16 214 -12 264 6 56 19 53 20 49 -17 -4 -43 -40 -67 -121 -81
-80 -13 -186 1 -226 31 -32 24 -44 89 -14 77 10 -4 32 -11 48 -16z m-24 -106
c23 -12 66 -19 129 -21 90 -4 117 1 193 33 16 7 18 3 15 -31 -3 -34 -8 -41
-41 -58 -79 -38 -234 -37 -302 3 -23 13 -31 25 -33 54 -2 20 -1 37 1 37 2 0
19 -8 38 -17z m149 -138 c76 0 104 5 143 22 l47 22 0 -33 c0 -20 -8 -40 -19
-50 -47 -43 -185 -59 -275 -32 -63 19 -86 41 -86 82 l0 33 48 -22 c38 -17 66
-22 142 -22z"/>
<path d="M1097 1022 c-64 -71 -31 -210 48 -200 43 5 70 49 69 114 0 42 -5 59
-24 79 -28 29 -70 33 -93 7z"/>
</g>
</svg>
