<?xml version="1.0" standalone="no"?>
<!DOCTYPE svg PUBLIC "-//W3C//DTD SVG 20010904//EN"
 "http://www.w3.org/TR/2001/REC-SVG-20010904/DTD/svg10.dtd">
<svg version="1.0" xmlns="http://www.w3.org/2000/svg"
 width="225.000000pt" height="225.000000pt" viewBox="0 0 225.000000 225.000000"
 preserveAspectRatio="xMidYMid meet">

<g transform="translate(0.000000,225.000000) scale(0.100000,-0.100000)"
fill="#000000" stroke="none">
<path d="M1080 2000 c-19 -4 -46 -12 -60 -20 -63 -33 -568 -336 -597 -358 -18
-13 -41 -43 -52 -66 -20 -40 -21 -60 -21 -435 0 -366 1 -394 19 -429 11 -20
32 -49 48 -63 31 -30 553 -341 622 -372 32 -14 58 -18 97 -15 46 4 85 24 346
178 161 95 307 184 324 196 18 13 44 47 58 76 l26 52 0 369 c0 255 -4 382 -12
409 -21 71 -70 109 -380 293 -304 180 -345 198 -418 185z m401 -218 c302 -179
347 -213 364 -272 8 -25 7 -25 -13 -6 -14 12 -31 17 -50 14 -44 -6 -619 -366
-651 -407 l-26 -34 0 -378 c0 -363 1 -378 20 -399 l20 -23 -46 5 c-37 4 -105
41 -350 185 -252 150 -309 188 -334 223 l-30 42 -3 369 c-2 228 1 384 7 407 6
21 24 52 41 69 28 28 550 346 624 379 71 32 100 21 427 -174z m-101 -794 c32
5 36 -2 20 -42 -6 -18 -17 -26 -33 -26 -37 0 -69 -28 -65 -58 3 -24 9 -28 47
-33 58 -8 74 -30 68 -92 -3 -33 -14 -63 -36 -93 -17 -25 -31 -56 -31 -69 0
-14 -8 -29 -20 -35 -18 -9 -20 -8 -20 15 0 22 -4 25 -35 25 -25 0 -35 4 -35
16 0 23 20 55 30 49 19 -12 79 23 86 49 10 40 -1 53 -47 59 -25 3 -49 14 -57
24 -20 26 -9 96 22 143 14 22 26 49 26 60 0 11 10 30 23 43 l22 22 3 -31 c3
-28 6 -30 32 -26z m260 -285 c0 -11 -20 -31 -48 -47 -26 -17 -57 -36 -69 -44
-21 -13 -23 -13 -23 9 0 19 15 32 63 61 71 43 77 44 77 21z"/>
</g>
</svg>
