<?xml version="1.0" standalone="no"?>
<!DOCTYPE svg PUBLIC "-//W3C//DTD SVG 20010904//EN"
 "http://www.w3.org/TR/2001/REC-SVG-20010904/DTD/svg10.dtd">
<svg version="1.0" xmlns="http://www.w3.org/2000/svg"
 width="262.000000pt" height="192.000000pt" viewBox="0 0 262.000000 192.000000"
 preserveAspectRatio="xMidYMid meet">

<g transform="translate(0.000000,192.000000) scale(0.100000,-0.100000)"
fill="#000000" stroke="none">
<path d="M1472 1773 c-10 -16 -27 -49 -37 -76 -10 -26 -20 -46 -22 -43 -2 2 3
21 12 42 20 49 10 37 -47 -51 -71 -110 -121 -160 -193 -194 -36 -17 -65 -35
-65 -41 0 -5 8 -7 18 -3 10 3 6 -2 -8 -13 -14 -10 -29 -18 -34 -16 -10 3 -63
-45 -77 -70 -6 -11 -4 -33 7 -64 9 -26 13 -59 11 -73 -3 -14 -9 -39 -12 -56
-3 -16 -8 -40 -11 -53 -2 -12 -19 -31 -37 -42 -17 -11 -27 -20 -21 -20 5 0 19
7 30 15 32 24 39 17 10 -10 -15 -14 -33 -25 -41 -25 -8 0 -16 -4 -20 -9 -3 -6
9 -7 30 -4 47 8 92 -27 133 -105 26 -48 37 -59 57 -59 14 0 25 3 25 7 0 4 33
8 73 9 39 1 92 4 116 8 l44 6 -6 -31 c-6 -30 -6 -31 11 -13 58 61 64 69 50 77
-7 4 -10 4 -6 -1 12 -13 -11 -33 -32 -28 -23 6 -25 16 -7 35 30 31 56 87 62
133 3 28 8 190 9 360 3 297 9 364 33 372 23 8 55 -125 88 -373 39 -286 44
-317 56 -325 8 -4 5 -10 -7 -17 -20 -11 -23 -10 59 -27 25 -5 73 -40 142 -103
22 -20 49 -44 59 -52 19 -15 19 -14 3 16 -24 47 -138 349 -207 549 -77 224
-126 332 -169 368 -41 34 -55 34 -79 0z m-76 -170 c-8 -15 -15 -25 -16 -21 0
12 23 58 27 54 3 -2 -2 -17 -11 -33z"/>
<path d="M1460 896 c0 -8 6 -16 14 -19 10 -4 12 0 9 14 -6 22 -23 26 -23 5z"/>
<path d="M778 553 c6 -2 12 -13 12 -23 0 -10 3 -20 8 -22 4 -1 23 -36 42 -76
19 -41 37 -75 41 -78 3 -2 11 8 17 21 9 18 8 23 -1 20 -7 -3 -28 30 -51 80
-31 68 -44 85 -60 84 -12 0 -15 -3 -8 -6z"/>
<path d="M970 540 c-7 -13 -7 -20 -1 -20 6 0 9 -35 8 -90 -2 -74 1 -90 13 -90
13 0 14 16 12 101 -3 77 -1 104 10 110 9 6 7 9 -9 9 -12 0 -27 -9 -33 -20z"/>
<path d="M1132 504 c-7 -14 -8 -23 -2 -19 9 6 30 -33 30 -56 0 -14 -48 -11
-53 4 -4 9 -6 9 -6 -1 -1 -7 -10 -31 -20 -52 -15 -32 -16 -40 -5 -40 8 0 14 9
14 19 0 38 11 51 45 51 29 0 35 -5 46 -35 7 -19 18 -35 25 -35 7 0 -1 34 -23
93 -19 50 -36 93 -37 95 -2 1 -8 -9 -14 -24z"/>
<path d="M1210 514 c0 -12 4 -14 13 -7 6 6 19 13 27 16 9 3 3 6 -12 6 -20 1
-28 -4 -28 -15z"/>
<path d="M1275 435 c0 -78 3 -95 15 -95 12 0 15 17 15 95 0 78 -3 95 -15 95
-12 0 -15 -17 -15 -95z"/>
<path d="M1340 523 c8 -3 18 -11 22 -17 5 -7 8 -4 8 7 0 11 -7 17 -22 16 -16
0 -18 -2 -8 -6z"/>
<path d="M1408 435 c2 -65 7 -95 15 -95 9 0 11 21 9 74 -3 43 1 82 7 95 10 19
9 21 -11 21 -23 0 -23 -2 -20 -95z"/>
<path d="M1617 517 c-3 -9 0 -29 8 -44 21 -40 19 -53 -9 -53 -13 0 -27 6 -29
13 -4 9 -6 9 -6 -1 -1 -7 -10 -31 -20 -52 -15 -32 -16 -40 -5 -40 8 0 14 10
14 23 0 36 14 49 51 45 28 -2 35 -8 43 -35 5 -18 15 -33 22 -33 10 0 7 17 -11
63 -46 124 -51 133 -58 114z"/>
<path d="M1750 516 c7 -10 10 -43 8 -95 -2 -67 0 -81 12 -81 12 0 15 17 15 95
0 93 0 95 -24 95 -19 0 -21 -3 -11 -14z"/>
<path d="M1823 519 c22 -13 22 -55 0 -67 -14 -9 -14 -11 5 -21 27 -15 30 -65
5 -80 -10 -6 -13 -11 -8 -11 20 0 55 31 55 50 0 11 -9 28 -21 39 -13 12 -17
21 -10 26 17 10 13 62 -5 69 -25 10 -41 6 -21 -5z"/>
<path d="M937 475 c-24 -50 -20 -58 4 -12 11 22 19 41 17 43 -3 2 -12 -12 -21
-31z"/>
<path d="M782 419 c-1 -30 -7 -60 -14 -67 -9 -9 -6 -12 16 -12 22 0 26 3 18
13 -6 7 -12 37 -15 67 l-3 55 -2 -56z"/>
<path d="M1500 350 c-13 -8 -12 -10 3 -10 9 0 17 5 17 10 0 12 -1 12 -20 0z"/>
</g>
</svg>
