<?xml version="1.0" standalone="no"?>
<!DOCTYPE svg PUBLIC "-//W3C//DTD SVG 20010904//EN"
 "http://www.w3.org/TR/2001/REC-SVG-20010904/DTD/svg10.dtd">
<svg version="1.0" xmlns="http://www.w3.org/2000/svg"
 width="2400.000000pt" height="1256.000000pt" viewBox="0 0 2400.000000 1256.000000"
 preserveAspectRatio="xMidYMid meet">

<g transform="translate(0.000000,1256.000000) scale(0.100000,-0.100000)"
fill="#000000" stroke="none">
<path d="M7513 8390 c-831 -58 -1463 -273 -1588 -541 -24 -53 -25 -59 -25
-298 0 -152 4 -258 11 -281 72 -241 596 -459 1309 -544 343 -41 904 -46 1235
-12 735 78 1266 277 1385 520 l31 63 -3 259 c-3 251 -4 260 -27 304 -129 243
-659 437 -1406 515 -176 19 -740 28 -922 15z m2046 -966 c12 -15 21 -38 21
-51 0 -34 -42 -73 -80 -73 -38 0 -80 39 -80 73 0 42 36 77 80 77 30 0 43 -6
59 -26z"/>
<path d="M14692 6990 c-212 -30 -356 -120 -429 -268 l-38 -76 0 -130 c0 -152
13 -191 87 -272 90 -98 211 -157 467 -224 176 -46 241 -70 288 -106 91 -70 97
-215 10 -289 -49 -42 -117 -60 -227 -58 -170 2 -274 66 -320 196 l-14 37 -179
0 -179 0 7 -42 c35 -207 195 -371 425 -434 93 -26 406 -27 500 -1 209 57 352
183 396 351 8 28 14 91 14 139 0 275 -160 415 -605 525 -210 53 -275 85 -301
148 -37 87 -4 177 78 218 44 22 65 26 140 26 162 0 252 -58 282 -182 l6 -28
180 0 c125 0 180 3 180 11 0 6 -7 39 -16 73 -47 183 -187 314 -390 366 -87 22
-272 33 -362 20z"/>
<path d="M16337 6989 c-264 -36 -489 -204 -598 -446 -56 -122 -74 -219 -73
-403 0 -180 11 -244 64 -375 87 -219 265 -380 485 -440 93 -26 322 -31 424
-11 l82 17 225 -156 c123 -86 229 -155 234 -153 10 3 200 220 200 228 0 3 -81
60 -180 128 -99 68 -180 126 -180 131 0 4 12 18 26 32 44 40 121 165 153 247
49 129 64 234 58 412 -6 177 -23 254 -87 385 -94 194 -263 332 -474 385 -93
23 -263 33 -359 19z m209 -290 c169 -31 287 -160 330 -360 22 -101 21 -292 -1
-389 -37 -160 -110 -267 -223 -322 -64 -32 -71 -33 -187 -33 -109 0 -125 2
-177 27 -107 50 -194 164 -234 308 -25 89 -30 300 -10 400 41 205 147 330 308
365 79 17 119 18 194 4z"/>
<path d="M11160 6145 l0 -825 161 0 161 0 -3 638 -4 637 81 -160 c78 -152 300
-567 505 -942 l94 -173 213 0 212 0 0 825 0 825 -165 0 -165 0 1 -427 c0 -236
4 -507 9 -603 4 -96 7 -176 6 -177 -1 -1 -28 49 -61 113 -56 110 -241 447
-485 887 l-115 206 -222 1 -223 0 0 -825z"/>
<path d="M17530 6145 l0 -825 570 0 570 0 5 23 c5 24 35 242 35 257 0 6 -153
10 -410 10 l-410 0 0 680 0 680 -180 0 -180 0 0 -825z"/>
<path d="M5900 6352 c1 -516 1 -514 57 -594 92 -134 389 -280 747 -368 791
-194 1890 -166 2596 66 223 74 447 205 514 302 55 80 55 78 56 594 l0 478 -67
-42 c-519 -318 -1588 -463 -2603 -352 -507 55 -960 185 -1232 352 l-68 42 0
-478z m3659 -228 c12 -15 21 -38 21 -51 0 -34 -42 -73 -80 -73 -38 0 -80 39
-80 73 0 42 36 77 80 77 30 0 43 -6 59 -26z"/>
<path d="M13280 6583 c-52 -8 -157 -45 -200 -70 -203 -117 -314 -349 -297
-623 8 -117 27 -193 75 -290 70 -142 209 -251 372 -291 80 -20 270 -17 345 5
208 62 354 216 412 436 23 89 23 301 0 390 -60 227 -222 391 -432 435 -64 13
-215 18 -275 8z m238 -292 c88 -45 131 -141 139 -316 8 -172 -25 -285 -106
-358 -131 -118 -340 -47 -397 136 -9 29 -18 100 -21 158 -10 201 38 325 147
382 49 26 63 28 125 25 45 -3 85 -13 113 -27z"/>
<path d="M5900 4927 c0 -561 -4 -534 104 -643 83 -83 177 -140 336 -205 272
-110 630 -186 1060 -225 221 -20 708 -22 915 -5 725 61 1259 225 1468 451 89
96 87 81 87 627 l0 474 -42 -26 c-132 -82 -375 -183 -581 -241 -765 -215
-1959 -215 -2724 0 -209 59 -446 157 -580 241 l-43 26 0 -474z m3659 -243 c12
-15 21 -38 21 -51 0 -34 -42 -73 -80 -73 -38 0 -80 39 -80 73 0 42 36 77 80
77 30 0 43 -6 59 -26z"/>
</g>
</svg>
