<?xml version="1.0" standalone="no"?>
<!DOCTYPE svg PUBLIC "-//W3C//DTD SVG 20010904//EN"
 "http://www.w3.org/TR/2001/REC-SVG-20010904/DTD/svg10.dtd">
<svg version="1.0" xmlns="http://www.w3.org/2000/svg"
 width="300.000000pt" height="168.000000pt" viewBox="0 0 300.000000 168.000000"
 preserveAspectRatio="xMidYMid meet">

<g transform="translate(0.000000,168.000000) scale(0.100000,-0.100000)"
fill="#000000" stroke="none">
<path d="M1373 1635 c-105 -29 -227 -109 -281 -184 -24 -34 -33 -38 -92 -48
-138 -21 -258 -110 -320 -237 -29 -58 -35 -82 -38 -157 -5 -95 19 -200 57
-248 l18 -24 471 197 c421 177 473 196 494 185 13 -6 162 -94 331 -195 169
-101 310 -184 312 -184 12 0 35 111 35 166 0 84 -30 160 -86 223 -46 51 -148
111 -190 111 -34 0 -54 10 -54 28 0 8 -16 48 -35 88 -64 132 -197 240 -345
279 -69 18 -208 18 -277 0z"/>
<path d="M2024 455 c-8 -21 2 -45 19 -45 21 0 38 25 31 44 -8 20 -43 21 -50 1z"/>
<path d="M462 447 c-42 -16 -91 -63 -108 -104 -21 -49 -18 -166 5 -211 37 -73
87 -102 173 -102 117 0 186 72 196 200 4 60 1 76 -21 122 -34 69 -78 99 -154
104 -32 2 -72 -2 -91 -9z m157 -54 c41 -30 61 -80 61 -151 0 -106 -45 -162
-134 -170 -44 -3 -62 0 -89 17 -106 65 -95 266 17 317 40 18 111 12 145 -13z"/>
<path d="M1430 239 l0 -212 89 6 c102 6 144 21 188 68 42 44 53 77 53 151 0
90 -27 140 -93 172 -44 22 -64 26 -144 26 l-93 0 0 -211z m210 151 c51 -26 73
-69 73 -141 0 -99 -56 -162 -158 -174 -88 -11 -85 -18 -85 170 l0 165 65 0
c46 0 78 -6 105 -20z"/>
<path d="M878 316 c-36 -24 -38 -24 -38 -6 0 13 -7 20 -20 20 -19 0 -20 -7
-20 -150 0 -143 1 -150 20 -150 19 0 20 7 20 104 0 98 2 106 26 135 32 38 81
42 110 10 16 -18 20 -40 22 -135 3 -106 5 -114 24 -114 19 0 19 6 16 130 -3
116 -5 132 -24 151 -34 33 -92 36 -136 5z"/>
<path d="M1184 326 c-92 -40 -112 -204 -33 -270 25 -21 41 -26 84 -26 64 0
105 16 105 42 0 19 -15 24 -24 9 -4 -5 -24 -12 -45 -16 -64 -11 -121 29 -121
84 0 20 6 21 106 21 l107 0 -6 49 c-7 61 -23 87 -63 106 -39 18 -69 18 -110 1z
m106 -46 c11 -11 20 -31 20 -45 0 -25 -1 -25 -80 -25 -91 0 -98 8 -54 59 31
38 83 42 114 11z"/>
<path d="M1921 326 c-13 -7 -30 -24 -37 -37 -13 -24 -13 -24 -14 9 0 25 -4 32
-20 32 -19 0 -20 -7 -20 -150 0 -143 1 -150 20 -150 19 0 20 7 20 90 0 100 15
151 50 170 12 7 31 10 41 7 15 -4 19 0 19 19 0 27 -21 31 -59 10z"/>
<path d="M2481 322 c-48 -26 -71 -74 -71 -145 0 -100 43 -147 134 -147 60 0
96 15 96 39 0 19 -2 19 -37 5 -66 -28 -132 3 -148 69 l-7 27 106 0 106 0 0 40
c0 104 -90 160 -179 112z m118 -48 c12 -15 21 -35 21 -45 0 -17 -9 -19 -85
-19 -47 0 -85 2 -85 5 0 15 32 65 47 74 34 20 80 13 102 -15z"/>
<path d="M2022 183 c3 -145 3 -148 26 -151 22 -3 22 -3 22 147 l0 151 -25 0
-26 0 3 -147z"/>
<path d="M2129 283 c10 -27 36 -94 57 -150 56 -147 64 -144 137 40 31 78 57
146 57 150 0 5 -10 7 -21 5 -18 -2 -29 -24 -63 -120 -23 -64 -44 -119 -47
-122 -3 -3 -16 27 -28 67 -50 156 -61 177 -87 177 l-24 0 19 -47z"/>
</g>
</svg>
