<?xml version="1.0" standalone="no"?>
<!DOCTYPE svg PUBLIC "-//W3C//DTD SVG 20010904//EN"
 "http://www.w3.org/TR/2001/REC-SVG-20010904/DTD/svg10.dtd">
<svg version="1.0" xmlns="http://www.w3.org/2000/svg"
 width="225.000000pt" height="225.000000pt" viewBox="0 0 225.000000 225.000000"
 preserveAspectRatio="xMidYMid meet">

<g transform="translate(0.000000,225.000000) scale(0.100000,-0.100000)"
fill="#000000" stroke="none">
<path d="M1467 2240 c-76 -19 -143 -64 -183 -122 l-27 -38 -583 0 -584 0 0
-1040 0 -1040 1035 0 1035 0 0 1040 0 1040 -174 0 c-163 0 -175 1 -181 19 -9
29 -91 100 -140 122 -52 23 -146 32 -198 19z m144 -51 c19 -7 41 -18 49 -25
12 -12 9 -12 -19 -4 -57 16 -198 -27 -172 -53 17 -17 13 -52 -7 -77 -14 -17
-30 -23 -63 -24 -41 -1 -45 -4 -63 -40 -20 -42 -26 -115 -13 -156 6 -19 3 -17
-15 10 -19 29 -23 48 -23 116 0 72 3 86 30 129 68 109 188 160 296 124z m-382
-191 c-5 -18 -9 -58 -9 -89 0 -45 -6 -64 -27 -96 -33 -49 -94 -101 -167 -142
-122 -70 -191 -78 -311 -36 -66 22 -90 26 -138 21 -86 -9 -150 -40 -206 -102
-143 -157 -98 -399 91 -494 52 -26 72 -30 138 -30 68 0 85 4 147 35 93 46 119
50 189 30 139 -40 304 -158 318 -226 2 -13 9 -53 15 -88 6 -35 22 -86 36 -112
l25 -49 -600 0 -600 0 0 705 0 705 554 0 555 0 -10 -32z m891 -673 l0 -705
-146 0 c-80 0 -144 3 -142 8 54 106 61 129 61 197 0 116 -55 213 -151 268 -45
25 -59 40 -79 83 -28 61 -47 203 -38 284 15 129 30 158 127 240 21 18 52 60
69 95 29 59 31 70 28 149 l-4 86 138 0 137 0 0 -705z m-713 318 c39 -17 58
-33 72 -61 56 -112 55 -348 -2 -433 -34 -50 -112 -94 -163 -91 -76 3 -222 69
-316 144 -57 45 -77 85 -80 159 -3 59 0 69 26 103 59 78 225 180 326 201 61
13 62 13 137 -22z m-709 -63 c50 -22 55 -32 11 -20 -35 10 -103 -1 -150 -26
-25 -13 -28 -17 -18 -35 8 -15 8 -28 -1 -50 -13 -30 -37 -43 -84 -44 -45 0
-71 -51 -71 -137 l0 -67 -20 37 c-24 45 -25 141 -2 193 56 132 216 203 335
149z m990 -510 c47 -21 58 -36 15 -19 -32 12 -86 6 -142 -17 -38 -15 -39 -17
-34 -55 8 -54 -15 -79 -73 -79 -39 0 -45 -4 -61 -32 -12 -23 -17 -56 -18 -106
0 -61 -2 -70 -13 -55 -41 56 -39 164 5 244 64 118 206 171 321 119z m-1214
-610 c22 -8 26 -16 26 -50 0 -22 -1 -40 -3 -40 -1 0 -20 9 -42 20 -47 24 -78
25 -99 5 -24 -25 -9 -43 51 -60 75 -22 103 -52 103 -108 0 -81 -63 -125 -161
-114 -73 9 -89 21 -89 67 0 22 2 40 5 40 2 0 22 -9 44 -21 25 -13 53 -19 78
-17 33 3 38 6 38 28 0 21 -8 27 -54 42 -77 25 -101 50 -101 107 0 48 18 79 55
99 25 14 115 15 149 2z m265 -1 c81 -28 82 -172 1 -214 -16 -8 -45 -15 -65
-15 l-35 0 0 -55 0 -55 -40 0 -40 0 0 175 0 175 74 0 c40 0 87 -5 105 -11z
m325 -146 c27 -87 51 -166 53 -175 5 -15 -1 -18 -34 -18 -37 0 -41 3 -49 33
-9 31 -11 32 -64 32 -52 0 -54 -1 -62 -32 -8 -30 -12 -33 -48 -33 -38 0 -39 1
-30 28 5 15 27 88 50 162 23 74 43 141 45 148 3 7 22 12 48 12 l43 0 48 -157z
m310 128 c36 -34 37 -107 1 -149 l-25 -29 38 -59 c21 -33 41 -65 46 -71 5 -10
-5 -13 -38 -13 -45 0 -46 1 -86 63 -52 84 -70 84 -70 0 l0 -63 -40 0 -40 0 0
176 0 176 94 -4 c84 -3 97 -6 120 -27z m312 10 c45 -27 69 -83 68 -161 0 -72
-18 -116 -60 -149 -38 -30 -29 -56 19 -55 36 1 37 0 37 -32 0 -34 0 -34 -49
-34 -57 0 -101 28 -101 65 0 17 -7 25 -27 30 -73 18 -113 79 -113 175 0 74 17
117 59 153 41 34 118 38 167 8z m204 -121 l0 -140 65 0 65 0 0 -35 0 -35 -105
0 -105 0 0 175 0 175 40 0 40 0 0 -140z"/>
<path d="M640 350 c0 -48 1 -50 28 -50 35 0 52 16 52 50 0 34 -17 50 -52 50
-27 0 -28 -2 -28 -50z"/>
<path d="M963 340 c-6 -14 -14 -40 -18 -57 -6 -32 -5 -33 24 -33 35 0 37 10
17 75 -13 39 -13 40 -23 15z"/>
<path d="M1240 355 c0 -43 1 -45 30 -45 39 0 67 38 50 69 -8 15 -21 21 -45 21
-35 0 -35 0 -35 -45z"/>
<path d="M1569 391 c-19 -15 -24 -30 -27 -87 -3 -59 -1 -73 18 -96 27 -36 73
-38 94 -5 37 56 28 161 -17 192 -28 20 -40 19 -68 -4z"/>
</g>
</svg>
