<?xml version="1.0" encoding="UTF-8"?>
<svg version="1.1" xmlns="http://www.w3.org/2000/svg" width="310" height="163">
<path d="M0 0 C102.3 0 204.6 0 310 0 C310 53.79 310 107.58 310 163 C207.7 163 105.4 163 0 163 C0 109.21 0 55.42 0 0 Z " fill="#FEFEFE" transform="translate(0,0)"/>
<path d="M0 0 C1.3921875 0.556875 1.3921875 0.556875 2.8125 1.125 C3.864375 1.41375 4.91625 1.7025 6 2 C6.99 1.34 7.98 0.68 9 0 C8.67 1.98 8.34 3.96 8 6 C9.98 5.67 11.96 5.34 14 5 C13.67 5.99 13.34 6.98 13 8 C12.34 8 11.68 8 11 8 C11.99 9.32 12.98 10.64 14 12 C13.67 12.598125 13.34 13.19625 13 13.8125 C11.54756302 16.98970589 11.90433041 18.71299123 13 22 C11.35 21.34 9.7 20.68 8 20 C7.34 20.99 6.68 21.98 6 23 C6.66 24.32 7.32 25.64 8 27 C6.35 26.34 4.7 25.68 3 25 C2.01 25.99 1.02 26.98 0 28 C-2 27 -4 26 -6 25 C-6.33 25.99 -6.66 26.98 -7 28 C-7.99 28 -8.98 28 -10 28 C-9.34 26.02 -8.68 24.04 -8 22 C-9.98 22.33 -11.96 22.66 -14 23 C-13.62875 22.236875 -13.2575 21.47375 -12.875 20.6875 C-12.58625 19.800625 -12.2975 18.91375 -12 18 C-12.66 17.01 -13.32 16.02 -14 15 C-13.01 14.01 -12.02 13.02 -11 12 C-11.66 10.02 -12.32 8.04 -13 6 C-11.02 6.66 -9.04 7.32 -7 8 C-6.78918149 4.10540926 -6.78918149 4.10540926 -8 1 C-6.02 1.66 -4.04 2.32 -2 3 C-1.34 2.01 -0.68 1.02 0 0 Z " fill="#315882" transform="translate(70,67)"/>
<path d="M0 0 C10 0 10 0 13 2 C13.1875 4.9375 13.1875 4.9375 13 8 C13 8.99 13 9.98 13 11 C13.33 11.33 13.66 11.66 14 12 C14.3125 14.875 14.3125 14.875 14 18 C10 21 10 21 0 21 C0 14.07 0 7.14 0 0 Z " fill="#385F87" transform="translate(189,70)"/>
<path d="M0 0 C1.4540625 0.3403125 1.4540625 0.3403125 2.9375 0.6875 C3.9275 0.3575 4.9175 0.0275 5.9375 -0.3125 C6.05363204 2.79135211 6.12472029 5.89464662 6.1875 9 C6.22101563 9.88107422 6.25453125 10.76214844 6.2890625 11.66992188 C6.38795763 18.172277 6.38795763 18.172277 4.1171875 20.76953125 C1.19708576 21.9993232 -0.93003281 22.09608268 -4.0625 21.6875 C-4.7225 20.6975 -5.3825 19.7075 -6.0625 18.6875 C-3.39583333 18.6875 -0.72916667 18.6875 1.9375 18.6875 C1.9375 17.6975 1.9375 16.7075 1.9375 15.6875 C1.009375 15.790625 0.08125 15.89375 -0.875 16 C-4.0625 15.6875 -4.0625 15.6875 -5.9375 13.625 C-7.32171989 10.01064806 -7.551427 7.52906932 -7.0625 3.6875 C-4.87097411 0.31592171 -4.05555374 -0.41383201 0 0 Z " fill="#375E86" transform="translate(163.0625,75.3125)"/>
<path d="M0 0 C0.66 0 1.32 0 2 0 C2 7.26 2 14.52 2 22 C-8 22 -8 22 -10.125 19.9375 C-11.19217464 16.35484227 -11.47333307 13.71904551 -11 10 C-9.375 7.5 -9.375 7.5 -7 6 C-3.75 6.25 -3.75 6.25 -1 7 C-0.67 4.69 -0.34 2.38 0 0 Z " fill="#204E7B" transform="translate(260,69)"/>
<path d="M0 0 C3 0.5625 3 0.5625 5.375 2.0625 C7.65416433 5.56890667 7.81753559 8.49150647 7 12.5625 C5.375 15.0625 5.375 15.0625 3 16.5625 C0 17.125 0 17.125 -3 16.5625 C-5.86795763 13.99643265 -6.86671285 12.36222291 -7.5 8.5625 C-6.68932657 3.69845941 -4.98257561 0.93423293 0 0 Z " fill="#2E5882" transform="translate(213,74.4375)"/>
<path d="M0 0 C0 0.99 0 1.98 0 3 C-0.62648438 3.07476562 -1.25296875 3.14953125 -1.8984375 3.2265625 C-4.40598191 3.62998447 -6.63497183 4.06609491 -9 5 C-10.69165301 7.98283157 -10.69165301 7.98283157 -11 11 C-13.31 11.33 -15.62 11.66 -18 12 C-18.66 15.3 -19.32 18.6 -20 22 C-20.66 22 -21.32 22 -22 22 C-21.85831863 20.56208484 -21.71148957 19.1246763 -21.5625 17.6875 C-21.48128906 16.88699219 -21.40007813 16.08648437 -21.31640625 15.26171875 C-21 13 -21 13 -20 10 C-19.64456573 7.66993089 -19.3086247 5.33672984 -19 3 C-18.113125 2.855625 -17.22625 2.71125 -16.3125 2.5625 C-1.08351178 -0.0235546 -1.08351178 -0.0235546 0 0 Z " fill="#3B6088" transform="translate(70,59)"/>
<path d="M0 0 C0.66 0 1.32 0 2 0 C2.18248359 4.65333144 1.74862486 7.73772691 0 12 C0.020625 13.051875 0.04125 14.10375 0.0625 15.1875 C0.041875 16.115625 0.02125 17.04375 0 18 C-2.96475105 19.9765007 -3.88446031 20.2859609 -7.25 20.5625 C-11.19334746 20.92391973 -15.08356412 21.41670104 -19 22 C-19 21.01 -19 20.02 -19 19 C-17.081875 18.6596875 -17.081875 18.6596875 -15.125 18.3125 C-12.92647455 17.8306008 -12.92647455 17.8306008 -11 17 C-9.53335352 14.58500543 -9.53335352 14.58500543 -9 12 C-8.34 11.34 -7.68 10.68 -7 10 C-5.35 10 -3.7 10 -2 10 C-1.34 6.7 -0.68 3.4 0 0 Z " fill="#40648A" transform="translate(90,82)"/>
<path d="M0 0 C1.94090826 1.94090826 1.39919435 5.47293902 1.5625 8.0625 C1.64628906 9.35285156 1.73007813 10.64320312 1.81640625 11.97265625 C1.87699219 12.97167969 1.93757812 13.97070312 2 15 C0.39667209 15.08121924 -1.20784026 15.13929134 -2.8125 15.1875 C-4.15248047 15.23970703 -4.15248047 15.23970703 -5.51953125 15.29296875 C-8 15 -8 15 -9.8359375 13.65234375 C-11 12 -11 12 -10.8125 9.375 C-10 7 -10 7 -8 6 C-5.6670134 5.95977609 -3.33293334 5.95679753 -1 6 C-1.66 4.68 -2.32 3.36 -3 2 C-4.32 2 -5.64 2 -7 2 C-7.33 2.66 -7.66 3.32 -8 4 C-8.66 4 -9.32 4 -10 4 C-9.625 2.0625 -9.625 2.0625 -9 0 C-5.90842747 -1.54578627 -3.31526981 -0.60277633 0 0 Z " fill="#2F5882" transform="translate(234,76)"/>
<path d="M0 0 C0.99 0 1.98 0 3 0 C3 2.31 3 4.62 3 7 C4.11375 6.79375 5.2275 6.5875 6.375 6.375 C7.57125 6.25125 8.7675 6.1275 10 6 C12 8 12 8 12.1953125 11.2578125 C12.17210937 12.53398438 12.14890625 13.81015625 12.125 15.125 C12.10695312 16.40632813 12.08890625 17.68765625 12.0703125 19.0078125 C12.04710937 19.99523437 12.02390625 20.98265625 12 22 C11.01 22 10.02 22 9 22 C8.67 17.71 8.34 13.42 8 9 C6.68 9.33 5.36 9.66 4 10 C3.67 13.96 3.34 17.92 3 22 C2.01 22 1.02 22 0 22 C0 14.74 0 7.48 0 0 Z " fill="#42678D" transform="translate(117,69)"/>
<path d="M0 0 C1.32 0.33 2.64 0.66 4 1 C4.33 0.67 4.66 0.34 5 0 C7.4375 -0.1875 7.4375 -0.1875 10 0 C12 2 12 2 12.1953125 5.2578125 C12.16050781 7.17207031 12.16050781 7.17207031 12.125 9.125 C12.10695312 10.40632813 12.08890625 11.68765625 12.0703125 13.0078125 C12.04710937 13.99523437 12.02390625 14.98265625 12 16 C11.34 16 10.68 16 10 16 C10 11.71 10 7.42 10 3 C8.35 3 6.7 3 5 3 C3.18884044 4.81115956 3.61800552 7.61278227 3.4375 10.0625 C3.31181641 11.71958984 3.31181641 11.71958984 3.18359375 13.41015625 C3.12300781 14.26480469 3.06242188 15.11945313 3 16 C2.01 16 1.02 16 0 16 C0 10.72 0 5.44 0 0 Z " fill="#47688D" transform="translate(140,75)"/>
<path d="M0 0 C3.5 0.125 3.5 0.125 7 1 C8.4375 3.0625 8.4375 3.0625 9 5 C8.01 5 7.02 5 6 5 C5.67 4.34 5.34 3.68 5 3 C3.68 3 2.36 3 1 3 C1 3.99 1 4.98 1 6 C2.134375 6.4125 3.26875 6.825 4.4375 7.25 C8 9 8 9 9.125 11 C9 13 9 13 7.9375 14.75 C5.18087887 16.52846525 3.21686583 16.33509019 0 16 C-0.99 15.34 -1.98 14.68 -3 14 C-3 13.01 -3 12.02 -3 11 C-2.13375 11.495 -2.13375 11.495 -1.25 12 C1.19883862 13.27075898 1.19883862 13.27075898 5 13 C5.33 12.01 5.66 11.02 6 10 C4.88625 9.71125 3.7725 9.4225 2.625 9.125 C-1 8 -1 8 -3 6 C-2.63318342 3.06546739 -2.13562754 2.13562754 0 0 Z " fill="#315A83" transform="translate(176,75)"/>
<path d="M0 0 C2.5 0.1875 2.5 0.1875 5 1 C7.15502531 4.23253796 7.46856135 5.25150923 7 9 C5.8125 10.875 5.8125 10.875 4 12 C-0.42105263 11.57894737 -0.42105263 11.57894737 -2 10 C-2.27314815 4.26388889 -2.27314815 4.26388889 -2 2 C-1.34 1.34 -0.68 0.68 0 0 Z " fill="#F3F5F7" transform="translate(211,77)"/>
<path d="M0 0 C4.55555556 0.55555556 4.55555556 0.55555556 6 2 C6.27314815 7.73611111 6.27314815 7.73611111 6 10 C5.34 10.66 4.68 11.32 4 12 C-0.55555556 11.44444444 -0.55555556 11.44444444 -2 10 C-2.27314815 4.26388889 -2.27314815 4.26388889 -2 2 C-1.34 1.34 -0.68 0.68 0 0 Z " fill="#EFF1F4" transform="translate(254,77)"/>
<path d="M0 0 C2.625 0.375 2.625 0.375 5 1 C5 4.3 5 7.6 5 11 C2.625 11.625 2.625 11.625 0 12 C-2 10 -2 10 -2.265625 8.125 C-2.26046875 7.42375 -2.2553125 6.7225 -2.25 6 C-2.25515625 5.29875 -2.2603125 4.5975 -2.265625 3.875 C-2 2 -2 2 0 0 Z " fill="#F7F8F9" transform="translate(161,77)"/>
<path d="M0 0 C5.28 0 10.56 0 16 0 C16 0.66 16 1.32 16 2 C13.69 2 11.38 2 9 2 C9 8.27 9 14.54 9 21 C8.34 21 7.68 21 7 21 C7 14.73 7 8.46 7 2 C4.69 2 2.38 2 0 2 C0 1.34 0 0.68 0 0 Z " fill="#194978" transform="translate(98,70)"/>
<path d="M0 0 C6.15234375 -0.09765625 6.15234375 -0.09765625 8 0 C9 1 9 1 9.1875 3.4375 C9 6 9 6 7 8 C3.375 8.125 3.375 8.125 0 8 C0 5.36 0 2.72 0 0 Z " fill="#E9ECF0" transform="translate(191,81)"/>
<path d="M0 0 C1.32 0.66 2.64 1.32 4 2 C4 3.98 4 5.96 4 8 C1.35261084 9.4606285 0.10551666 10 -3 10 C-2.67 11.98 -2.34 13.96 -2 16 C-2.99 16 -3.98 16 -5 16 C-5.33 13.69 -5.66 11.38 -6 9 C-3.35261084 7.5393715 -2.10551666 7 1 7 C1 6.34 1 5.68 1 5 C0.34 5 -0.32 5 -1 5 C-0.67 3.35 -0.34 1.7 0 0 Z " fill="#F4F6F8" transform="translate(71,73)"/>
<path d="M0 0 C2 2 2 2 2.125 5.625 C2.08375 6.73875 2.0425 7.8525 2 9 C4.31 9 6.62 9 9 9 C9 9.66 9 10.32 9 11 C6.69 11 4.38 11 2 11 C2 13.64 2 16.28 2 19 C4.31 19 6.62 19 9 19 C9 19.33 9 19.66 9 20 C6.03 20.33 3.06 20.66 0 21 C0 14.07 0 7.14 0 0 Z " fill="#194978" transform="translate(189,70)"/>
<path d="M0 0 C1 1 1 1 1.09765625 3.28515625 C1.08605469 4.20167969 1.07445312 5.11820312 1.0625 6.0625 C1.05347656 6.98160156 1.04445312 7.90070313 1.03515625 8.84765625 C1.02355469 9.55792969 1.01195312 10.26820312 1 11 C0.34 11 -0.32 11 -1 11 C-1 9.68 -1 8.36 -1 7 C-3.97 7.66 -6.94 8.32 -10 9 C-10 8.34 -10 7.68 -10 7 C-7.04335481 5.5216774 -4.25770263 5.93967217 -1 6 C-1.66 4.68 -2.32 3.36 -3 2 C-4.32 2 -5.64 2 -7 2 C-7.33 2.66 -7.66 3.32 -8 4 C-8.66 4 -9.32 4 -10 4 C-9.625 2.0625 -9.625 2.0625 -9 0 C-5.90842747 -1.54578627 -3.31526981 -0.60277633 0 0 Z " fill="#1B4B7A" transform="translate(234,76)"/>
<path d="M0 0 C3.09202435 0.74846895 3.09202435 0.74846895 6.0625 -0.5 C6.0625 5.11 6.0625 10.72 6.0625 16.5 C5.7325 16.5 5.4025 16.5 5.0625 16.5 C4.4025 12.21 3.7425 7.92 3.0625 3.5 C1.4125 3.17 -0.2375 2.84 -1.9375 2.5 C-2.9275 3.985 -2.9275 3.985 -3.9375 5.5 C-4.5975 5.5 -5.2575 5.5 -5.9375 5.5 C-5.5625 3.0625 -5.5625 3.0625 -4.9375 0.5 C-2.9375 -0.5 -2.9375 -0.5 0 0 Z " fill="#26527E" transform="translate(162.9375,75.5)"/>
<path d="M0 0 C0.66 0 1.32 0 2 0 C2.18188153 4.63797911 1.78639337 7.75731574 0 12 C-0.16798262 14.70886941 -0.16798262 14.70886941 0 17 C-2 16 -2 16 -3 13 C-4.98 13 -6.96 13 -9 13 C-8.34 12.01 -7.68 11.02 -7 10 C-5.35 10 -3.7 10 -2 10 C-1.34 6.7 -0.68 3.4 0 0 Z " fill="#23507C" transform="translate(90,82)"/>
<path d="M0 0 C2.875 -0.125 2.875 -0.125 6 0 C6.66 0.66 7.32 1.32 8 2 C7.46428571 5.53571429 7.46428571 5.53571429 6 7 C4.00041636 7.04080783 1.99954746 7.04254356 0 7 C0 4.69 0 2.38 0 0 Z " fill="#F4F6F8" transform="translate(192,72)"/>
<path d="M0 0 C0.99 0 1.98 0 3 0 C3 5.28 3 10.56 3 16 C2.01 16 1.02 16 0 16 C0 10.72 0 5.44 0 0 Z " fill="#4A6C90" transform="translate(133,75)"/>
<path d="M0 0 C0 0.99 0 1.98 0 3 C-1.32 3.33 -2.64 3.66 -4 4 C-4.33 7.96 -4.66 11.92 -5 16 C-5.66 16 -6.32 16 -7 16 C-7 11.05 -7 6.1 -7 1 C-3 0 -3 0 0 0 Z " fill="#204F7C" transform="translate(247,75)"/>
<path d="M0 0 C0.66 0 1.32 0 2 0 C2.33 0.99 2.66 1.98 3 3 C5.00016466 4.20882096 5.00016466 4.20882096 7 5 C7 5.33 7 5.66 7 6 C5.35 6 3.7 6 2 6 C1.34 9.3 0.68 12.6 0 16 C-0.66 16 -1.32 16 -2 16 C-1.42978066 10.6496441 -0.79265639 5.32212148 0 0 Z " fill="#25527E" transform="translate(50,65)"/>
<path d="M0 0 C-0.33 1.65 -0.66 3.3 -1 5 C-2.65 5.33 -4.3 5.66 -6 6 C-6.33 4.35 -6.66 2.7 -7 1 C-4.53721199 -0.231394 -2.7204945 -0.07159196 0 0 Z " fill="#EBEEF2" transform="translate(233,83)"/>
<path d="M0 0 C0.99 0.33 1.98 0.66 3 1 C3.144375 2.11375 3.28875 3.2275 3.4375 4.375 C3.78372035 7.82142047 3.78372035 7.82142047 5 10 C4.34 10.66 3.68 11.32 3 12 C0.01485372 7.89542386 -0.2954439 5.02254631 0 0 Z " fill="#42658B" transform="translate(249,79)"/>
<path d="M0 0 C0 0.99 0 1.98 0 3 C-0.99 3 -1.98 3 -3 3 C-2.67 4.98 -2.34 6.96 -2 9 C-2.99 9 -3.98 9 -5 9 C-5.33 6.69 -5.66 4.38 -6 2 C-2.25 0 -2.25 0 0 0 Z " fill="#DFE4EA" transform="translate(71,80)"/>
<path d="M0 0 C0.99 0.33 1.98 0.66 3 1 C3 5.62 3 10.24 3 15 C2.34 15 1.68 15 1 15 C0.67 10.05 0.34 5.1 0 0 Z " fill="#204C7A" transform="translate(149,76)"/>
<path d="M0 0 C0.33 0.66 0.66 1.32 1 2 C-2.28976808 3.09658936 -3.71303767 2.79953138 -7 2 C-7.33 2.66 -7.66 3.32 -8 4 C-8.66 4 -9.32 4 -10 4 C-9.625 2.0625 -9.625 2.0625 -9 0 C-5.88173308 -1.55913346 -3.32926126 -0.66585225 0 0 Z " fill="#3A6188" transform="translate(234,76)"/>
<path d="M0 0 C1.670625 0.2475 1.670625 0.2475 3.375 0.5 C6.94351384 1.26487734 6.94351384 1.26487734 10 0 C9 3 9 3 7 4 C4 4.25 4 4.25 1 4 C0.34 3.01 -0.32 2.02 -1 1 C-0.67 0.67 -0.34 0.34 0 0 Z " fill="#26537F" transform="translate(158,93)"/>
<path d="M0 0 C2 3 2 3 4 6 C6.05925139 6.72382467 6.05925139 6.72382467 8 7 C8 7.66 8 8.32 8 9 C5.25913944 9.22223194 3.56036279 9.34781139 1.1875 7.875 C-0.49106106 5.22464043 -0.20450238 3.06753576 0 0 Z " fill="#1E4D7B" transform="translate(207,82)"/>
<path d="M0 0 C0.33 0 0.66 0 1 0 C1.66 4.95 2.32 9.9 3 15 C2.01 14.67 1.02 14.34 0 14 C-1.39151652 9.20699867 -0.68662689 4.84864218 0 0 Z " fill="#67819F" transform="translate(166,79)"/>
<path d="M0 0 C1.98 0.495 1.98 0.495 4 1 C3.67 2.32 3.34 3.64 3 5 C1.68 5 0.36 5 -1 5 C-0.67 3.35 -0.34 1.7 0 0 Z " fill="#F2F4F6" transform="translate(84,94)"/>
<path d="M0 0 C1.32 0 2.64 0 4 0 C3.67 1.65 3.34 3.3 3 5 C1.68 4.67 0.36 4.34 -1 4 C-0.67 2.68 -0.34 1.36 0 0 Z " fill="#EFF1F4" transform="translate(53,64)"/>
<path d="M0 0 C1.15941038 3.47823115 0.70820884 5.45895578 0 9 C-0.99 9.33 -1.98 9.66 -3 10 C-3.36923077 4.58461538 -3.36923077 4.58461538 -1.5 1.625 C-1.005 1.08875 -0.51 0.5525 0 0 Z " fill="#3D6188" transform="translate(209,76)"/>
<path d="M0 0 C1.98 0 3.96 0 6 0 C6 0.99 6 1.98 6 3 C3.69 3 1.38 3 -1 3 C-0.67 2.01 -0.34 1.02 0 0 Z " fill="#527395" transform="translate(64,59)"/>
<path d="M0 0 C-1.25 1.5 -1.25 1.5 -3 3 C-4.32 3 -5.64 3 -7 3 C-7 2.01 -7 1.02 -7 0 C-3.98968256 -0.93423645 -3.13349732 -1.04449911 0 0 Z " fill="#4A6C90" transform="translate(90,99)"/>
<path d="M0 0 C0.66 0 1.32 0 2 0 C2 2.31 2 4.62 2 7 C1.01 7 0.02 7 -1 7 C-0.67 4.69 -0.34 2.38 0 0 Z " fill="#2F5A84" transform="translate(90,82)"/>
<path d="M0 0 C0.66 0.33 1.32 0.66 2 1 C1.1875 3.4375 1.1875 3.4375 0 6 C-0.99 6.33 -1.98 6.66 -3 7 C-2.38722388 4.03824877 -1.74627478 2.61941217 0 0 Z " fill="#395F87" transform="translate(218,84)"/>
<path d="M0 0 C-0.33 0.66 -0.66 1.32 -1 2 C-4.0625 2.625 -4.0625 2.625 -7 3 C-6.67 2.01 -6.34 1.02 -6 0 C-3.50907189 -1.24546405 -2.58919267 -0.7767578 0 0 Z " fill="#496A8F" transform="translate(57,62)"/>
</svg>
